<svg xmlns="http://www.w3.org/2000/svg" width="114.74" height="136.519" viewBox="0 0 114.74 136.519">
  <defs>
    <style>
      .cls-1 {
        opacity: 0.07;
      }

      .cls-2 {
        fill: #858585;
      }
    </style>
  </defs>
  <g id="security" class="cls-1" transform="translate(-17.112 0)">
    <path id="Path_10" data-name="Path 10" class="cls-2" d="M131.7,35.151c-.07-3.686-.137-7.168-.137-10.536a4.779,4.779,0,0,0-4.78-4.778c-20.441,0-36-5.873-48.977-18.483a4.779,4.779,0,0,0-6.664,0C58.176,13.964,42.615,19.837,22.176,19.837a4.779,4.779,0,0,0-4.78,4.778c0,3.369-.066,6.852-.137,10.539-.655,34.3-1.552,81.277,55.655,101.1a4.775,4.775,0,0,0,3.13,0C133.256,116.43,132.36,69.453,131.7,35.151ZM74.48,126.67C25.417,108.851,26.159,69.817,26.817,35.336c.04-2.069.078-4.075.1-6.041,19.144-.808,34.453-6.608,47.558-18.021C87.586,22.687,102.9,28.488,122.043,29.295c.027,1.966.065,3.97.1,6.038C122.805,69.815,123.546,108.85,74.48,126.67Z" transform="translate(0 0)"/>
    <path id="Path_11" data-name="Path 11" class="cls-2" d="M109.922,80.3l-23.26,23.259L76.736,93.63a4.819,4.819,0,0,0-6.815,6.816l13.333,13.333a4.82,4.82,0,0,0,6.815,0l26.667-26.666a4.819,4.819,0,1,0-6.814-6.816Z" transform="translate(-18.846 -28.778)"/>
  </g>
</svg>
