<svg xmlns="http://www.w3.org/2000/svg" width="134.305" height="136.519" viewBox="0 0 134.305 136.519">
  <defs>
    <style>
      .cls-1 {
        opacity: 0.07;
      }

      .cls-2 {
        fill: #858585;
      }
    </style>
  </defs>
  <g id="clockwise-rotation" class="cls-1" transform="translate(-3.832 0)">
    <g id="Layer_2_19_" transform="translate(3.832 0)">
      <g id="Group_145" data-name="Group 145" transform="translate(0 0)">
        <path id="Path_216" data-name="Path 216" class="cls-2" d="M133.766,45.6a5.4,5.4,0,0,0-10.1,3.821,56.326,56.326,0,0,1-74.88,71.7,56.81,56.81,0,0,1-11.184-6.374A56.328,56.328,0,0,1,91.393,16.876l-3.825,6.46c-1.051,1.775-.243,2.959,1.791,2.63l18.172-2.934a3.021,3.021,0,0,0,2.448-4.133L103.815,1.553c-.69-1.943-2.116-2.082-3.165-.307L96.961,7.474a67.117,67.117,0,0,0-88.3,86.8,66.677,66.677,0,0,0,22.545,29.179,67.612,67.612,0,0,0,13.327,7.595A67.121,67.121,0,0,0,133.766,45.6Z" transform="translate(-3.832 0)"/>
        <path id="Path_217" data-name="Path 217" class="cls-2" d="M217.354,90.917a4.37,4.37,0,0,0-4.37,4.37v43.544l39.825,20.587a4.371,4.371,0,0,0,5.889-1.876,4.371,4.371,0,0,0-1.877-5.89L221.726,133.51V95.287A4.37,4.37,0,0,0,217.354,90.917Z" transform="translate(-152.569 -64.655)"/>
      </g>
    </g>
  </g>
</svg>
