<svg xmlns="http://www.w3.org/2000/svg" width="94.526" height="85.341" viewBox="0 0 94.526 85.341">
  <defs>
    <style>
      .cls-1 {
        opacity: 0.8;
      }
    </style>
  </defs>
  <g id="policy" class="cls-1" transform="translate(0)">
    <path id="Path_180" data-name="Path 180" d="M84.558,0H23.434a9.583,9.583,0,0,0-9.62,9.514l-.394,53.823H1.491A1.552,1.552,0,0,0,0,64.929v7.407A12.979,12.979,0,0,0,12.246,85.252v.089H63.718v-.1c.383.016.614.1.878.1h.037A12.939,12.939,0,0,0,77.5,72.335V25.258H93.034a1.568,1.568,0,0,0,1.491-1.61V10.057A10.04,10.04,0,0,0,84.557,0ZM12.915,82.28h-.01a9.92,9.92,0,0,1-9.844-9.945V66.4h48.6V72.31A12.956,12.956,0,0,0,55.446,81.5a5.5,5.5,0,0,1,.806.777Zm61.519-9.946a9.885,9.885,0,0,1-9.8,9.946H64.6a9.946,9.946,0,0,1-9.874-9.97V64.929a1.586,1.586,0,0,0-1.531-1.593H16.481l.394-53.812a6.521,6.521,0,0,1,6.559-6.462h53.9a10.445,10.445,0,0,0-2.9,7.037Zm17.03-62.249V22.2H77.5V10.1a7.089,7.089,0,0,1,7.017-7.034h.043a6.978,6.978,0,0,1,6.909,7.011Zm0,0"/>
    <path id="Path_181" data-name="Path 181" d="M167.753,81l7.892,5.4a1.507,1.507,0,0,0,1.711,0L185.225,81a11.889,11.889,0,0,0,4.752-9.07V61.017a1.5,1.5,0,0,0-.816-1.375l-12.017-5.911a1.5,1.5,0,0,0-1.338,0l-11.994,5.894A1.494,1.494,0,0,0,163,61V71.934A11.89,11.89,0,0,0,167.753,81Zm-1.694-19.047,10.428-5.145,10.428,5.16v9.964a8.821,8.821,0,0,1-3.418,6.539l-7.028,4.807-7-4.806a8.817,8.817,0,0,1-3.41-6.539Zm0,0" transform="translate(-131.807 -43.323)"/>
    <path id="Path_182" data-name="Path 182" d="M205.067,124.831a1.529,1.529,0,0,0,1.084.459h0a1.533,1.533,0,0,0,1.082-.453l6.09-6.092a1.531,1.531,0,0,0-2.165-2.167l-5,5-2-2.019a1.532,1.532,0,0,0-2.176,2.156Zm0,0" transform="translate(-162.977 -93.909)"/>
    <path id="Path_183" data-name="Path 183" d="M171.27,248H134.531a1.531,1.531,0,1,0,0,3.062H171.27a1.531,1.531,0,1,0,0-3.062Zm0,0" transform="translate(-107.551 -200.546)"/>
    <path id="Path_184" data-name="Path 184" d="M171.27,285H134.531a1.531,1.531,0,1,0,0,3.062H171.27a1.531,1.531,0,1,0,0-3.062Zm0,0" transform="translate(-107.551 -230.466)"/>
  </g>
</svg>
