<svg xmlns="http://www.w3.org/2000/svg" width="85.339" height="85.341" viewBox="0 0 85.339 85.341">
  <defs>
    <style>
      .cls-1 {
        opacity: 0.8;
      }
    </style>
  </defs>
  <path id="living-room" class="cls-1" d="M81.08,49.783H76.813V35.56A7.12,7.12,0,0,0,69.7,28.448H46.944a7.12,7.12,0,0,0-7.112,7.112V49.783H35.565A4.272,4.272,0,0,0,31.3,54.05V68.273a7.1,7.1,0,0,0,6.661,7.066L35.915,82.5H22.621a7.124,7.124,0,0,0-6.968-5.689H12.809V11.323a8.48,8.48,0,0,1,16.874-1.2l.025.173a4.241,4.241,0,0,0-2.565,4.639l.388,2.3-3.8,6.531a2.846,2.846,0,0,0,2.447,4.278A2.888,2.888,0,0,0,26.66,28l13.645-2.306a2.844,2.844,0,0,0,1.378-4.964l-5.738-4.919-.388-2.3a4.258,4.258,0,0,0-3-3.363L32.5,9.722a11.324,11.324,0,0,0-22.535,1.6V76.807H7.12V75.385a1.422,1.422,0,1,0-2.845,0V77.41A7.117,7.117,0,0,0,.008,83.918,1.422,1.422,0,0,0,1.43,85.34H83.924a1.422,1.422,0,0,0,0-2.845H80.73l-2.045-7.157a7.1,7.1,0,0,0,6.661-7.066V54.05a4.272,4.272,0,0,0-4.267-4.267ZM39.831,22.889,26.186,25.2l3.727-6.4,4.3-.726,5.633,4.817Zm-6.842-7.5-2.8.474-.238-1.4a1.424,1.424,0,0,1,1.165-1.639,1.459,1.459,0,0,1,.238-.02,1.426,1.426,0,0,1,1.4,1.185Zm13.955,15.9H69.7a4.272,4.272,0,0,1,4.267,4.267V50.045a4.258,4.258,0,0,0-2.845,4v2.881a7.042,7.042,0,0,0-4.267-1.459h-5.1l3.261-3.261A1.422,1.422,0,0,0,63.006,50.2l-3.261,3.261V46.938a1.423,1.423,0,0,0-2.845,0v6.523L53.639,50.2a1.422,1.422,0,0,0-2.011,2.011l3.261,3.261h-5.1a7.042,7.042,0,0,0-4.267,1.459V54.05a4.258,4.258,0,0,0-2.845-4V35.56a4.272,4.272,0,0,1,4.267-4.267ZM66.856,58.317a4.272,4.272,0,0,1,4.267,4.267v1.422h-25.6V62.584a4.272,4.272,0,0,1,4.267-4.267Zm2.02,17.068L72.94,82.5H43.706l4.063-7.111Zm2.248-2.845h-25.6V66.85h25.6Zm-36.98-4.267V54.05a1.424,1.424,0,0,1,1.422-1.423h5.69a1.424,1.424,0,0,1,1.422,1.423V72.539H38.41a4.271,4.271,0,0,1-4.267-4.267ZM3.1,82.5a4.274,4.274,0,0,1,4.023-2.845h8.534A4.274,4.274,0,0,1,19.676,82.5Zm35.777,0,2.032-7.111h3.588L40.43,82.5Zm37.341,0-4.063-7.111h3.588L77.771,82.5ZM82.5,68.273a4.271,4.271,0,0,1-4.267,4.267H73.968V54.05a1.424,1.424,0,0,1,1.422-1.423h5.69A1.425,1.425,0,0,1,82.5,54.05Zm0,0" transform="translate(-0.008 0.001)"/>
</svg>
