<?xml version="1.0" encoding="utf-8"?>
<!-- Generator: Adobe Illustrator 23.0.0, SVG Export Plug-In . SVG Version: 6.00 Build 0)  -->
<svg version="1.1" id="Layer_1" xmlns="http://www.w3.org/2000/svg" xmlns:xlink="http://www.w3.org/1999/xlink" x="0px" y="0px"
	 viewBox="0 0 1374 335" style="enable-background:new 0 0 1374 335;" xml:space="preserve">
<style type="text/css">
	.st0{display:none;
     
 	
	}
 path, rect, polygon{
	 fill: #DBDBDB;
}


</style>
<rect x="-7" y="0" class="st0" width="1381" height="335"/>
<path d="M298.02,182.93c-5.98,0-11.54-0.81-16.67-2.45c-5.13-1.64-9.58-3.96-13.36-6.95c-3.77-2.99-6.69-6.59-8.76-10.79
	c-2.06-4.2-3.1-8.87-3.1-14s1.06-9.83,3.21-14.1c2.1-4.22,4.96-7.83,8.6-10.87h-51.94c-2.75,7.12-4.1,14.81-4.1,23.05
	c0,10.4,2.16,20.05,6.51,28.95c4.34,8.91,10.33,16.6,17.96,23.09c7.62,6.48,16.69,11.57,27.24,15.28
	c10.55,3.7,22.01,5.55,34.41,5.55h71.81l28.42-36.76H298.02z"/>
<path d="M820.5,170.54c-1.38-3.44-2.09-7.68-2.13-12.72c0.3-3.12,0.45-6.36,0.45-9.72c0-3.19-0.14-6.27-0.42-9.24
	c-0.01-0.16-0.02-0.32-0.04-0.48l-2.63-14.13c0,0,0-0.01-0.01-0.01c-0.12-0.43-0.25-0.85-0.38-1.27c-0.12-0.41-0.25-0.81-0.39-1.22
	c-0.82-2.51-1.78-4.91-2.88-7.2c-0.18-0.38-0.37-0.76-0.56-1.13c-0.19-0.38-0.38-0.75-0.58-1.12c-0.19-0.37-0.39-0.74-0.6-1.1
	c-0.2-0.37-0.41-0.73-0.62-1.08c-0.05-0.1-0.11-0.19-0.17-0.29c-1.04-1.74-2.17-3.41-3.38-5c-0.15-0.2-0.3-0.41-0.47-0.61
	c-0.11-0.15-0.22-0.29-0.34-0.43c-0.17-0.22-0.35-0.44-0.53-0.65c-0.24-0.3-0.48-0.59-0.73-0.88c-0.13-0.15-0.26-0.29-0.39-0.44
	c-0.09-0.11-0.19-0.22-0.29-0.33c-0.33-0.38-0.67-0.75-1.02-1.11c-0.36-0.39-0.73-0.77-1.11-1.14c-0.07-0.08-0.14-0.15-0.2-0.2
	c-0.48-0.48-0.97-0.95-1.47-1.41c-0.3-0.28-0.61-0.56-0.92-0.83c-0.31-0.28-0.63-0.56-0.95-0.82c-0.28-0.25-0.56-0.48-0.85-0.71
	c-1.35-1.11-2.77-2.16-4.25-3.16c-0.66-0.45-1.34-0.89-2.03-1.32c-0.5-0.32-1.01-0.63-1.53-0.93c-0.03-0.03-0.05-0.04-0.08-0.05
	c-0.38-0.23-0.76-0.45-1.15-0.67c-0.61-0.35-1.22-0.69-1.85-1.03c-0.41-0.22-0.82-0.43-1.24-0.64c-0.17-0.09-0.33-0.17-0.5-0.25
	c-0.19-0.1-0.37-0.19-0.56-0.28c-0.7-0.35-1.41-0.69-2.13-1.02c-0.63-0.29-1.28-0.58-1.93-0.85c-0.1-0.05-0.21-0.1-0.31-0.14
	c-0.01,0-0.01-0.01-0.01-0.01c-1.62-0.68-3.28-1.33-4.99-1.95c-3.17-1.15-6.5-2.18-10-3.09c-13.98-3.68-30.65-5.51-50.01-5.51
	c-34.91,0-61.05,5.91-78.43,17.74c-17.39,11.83-26.08,30.49-26.08,55.99c0,25.64,8.66,44.38,25.97,56.21
	c17.31,11.82,43.49,17.73,78.54,17.73c30.19,0,53.82-4.42,70.91-13.27c-6.14-5.41-10.94-11.76-14.29-18.92
	c-2.2-4.69-3.86-9.79-4.96-15.25c-1.4,1.27-2.99,2.42-4.76,3.42c-4.77,2.71-11,4.52-18.69,5.45c-7.7,0.93-17.1,1.39-28.21,1.39
	c-11.12,0-20.52-0.46-28.21-1.39c-7.7-0.93-13.93-2.74-18.7-5.45c-4.78-2.71-8.23-6.45-10.37-11.22c-2.13-4.77-3.2-11.01-3.2-18.7
	c0-7.69,1.07-13.92,3.2-18.7c2.14-4.77,5.59-8.47,10.37-11.11c4.77-2.64,11-4.42,18.7-5.34c7.69-0.93,17.09-1.39,28.21-1.39
	c11.11,0,20.51,0.46,28.21,1.39c7.69,0.92,13.92,2.7,18.69,5.34c1.11,0.61,2.15,1.28,3.11,2.01c3.2,2.4,5.62,5.44,7.26,9.1
	c1.32,2.95,2.23,6.45,2.74,10.51v17.38c0,10.83,1.89,20.27,5.67,28.32c3.2,6.84,7.95,12.72,14.24,17.65
	c1.12,0.88,2.28,1.72,3.5,2.54c1.7,1.14,3.49,2.23,5.39,3.25c10.33-8.39,17.6-19.25,21.7-32.45
	C822.86,174.87,821.42,172.84,820.5,170.54z"/>
<path d="M818.4,138.86c-0.01-0.16-0.02-0.32-0.04-0.48c-0.12-1.19-0.25-2.37-0.42-3.53c-0.04-0.32-0.09-0.64-0.14-0.95l-2.07-9.65
	c0,0,0-0.01-0.01-0.01c-0.12-0.43-0.25-0.85-0.38-1.27c-0.12-0.41-0.25-0.81-0.39-1.22c-0.82-2.51-1.78-4.91-2.88-7.2
	c-0.18-0.38-0.37-0.76-0.56-1.13c-0.19-0.38-0.38-0.75-0.58-1.12c-0.19-0.37-0.39-0.74-0.6-1.1c-0.2-0.37-0.41-0.73-0.62-1.08
	c-0.05-0.1-0.11-0.19-0.17-0.29c-1.04-1.74-2.17-3.41-3.38-5c-0.15-0.2-0.3-0.41-0.47-0.61c-0.11-0.15-0.22-0.29-0.34-0.43
	c-0.17-0.22-0.35-0.44-0.53-0.65c-0.24-0.3-0.48-0.59-0.73-0.88c-0.13-0.15-0.26-0.29-0.39-0.44c-0.09-0.11-0.19-0.22-0.29-0.33
	c-0.33-0.38-0.67-0.75-1.02-1.11c-0.36-0.39-0.73-0.77-1.11-1.14c-0.07-0.08-0.14-0.15-0.2-0.2c-0.48-0.48-0.97-0.95-1.47-1.41
	c-0.3-0.28-0.61-0.56-0.92-0.83c-0.31-0.28-0.63-0.56-0.95-0.82c-0.28-0.25-0.56-0.48-0.85-0.71c-1.35-1.11-2.77-2.16-4.25-3.16
	c-0.66-0.45-1.34-0.89-2.03-1.32c-0.5-0.32-1.01-0.63-1.53-0.93c-0.03-0.03-0.05-0.04-0.08-0.05c-0.38-0.23-0.76-0.45-1.15-0.67
	c-0.61-0.35-1.22-0.69-1.85-1.03c-0.41-0.22-0.82-0.43-1.24-0.64c-0.17-0.09-0.33-0.17-0.5-0.25c-0.19-0.1-0.37-0.19-0.56-0.28
	c-0.7-0.35-1.41-0.69-2.13-1.02c-0.63-0.29-1.28-0.58-1.93-0.85c-0.1-0.05-0.21-0.1-0.31-0.14c-0.01,0-0.01-0.01-0.01-0.01
	c-1.62-0.68-3.28-1.33-4.99-1.95c-3.17-1.15-6.5-2.18-10-3.09c-13.98-3.68-30.65-5.51-50.01-5.51c-34.91,0-61.05,5.91-78.43,17.74
	c-17.39,11.83-26.08,30.49-26.08,55.99c0,25.64,8.66,44.38,25.97,56.21c17.31,11.82,43.49,17.73,78.54,17.73
	c30.19,0,53.82-4.42,70.91-13.27c-6.14-5.41-10.94-11.76-14.29-18.92c-2.2-4.69-3.86-9.79-4.96-15.25c-1.4,1.27-2.99,2.42-4.76,3.42
	c-4.77,2.71-11,4.52-18.69,5.45c-7.7,0.93-17.1,1.39-28.21,1.39c-11.12,0-20.52-0.46-28.21-1.39c-7.7-0.93-13.93-2.74-18.7-5.45
	c-4.78-2.71-8.23-6.45-10.37-11.22c-2.13-4.77-3.2-11.01-3.2-18.7c0-7.69,1.07-13.92,3.2-18.7c2.14-4.77,5.59-8.47,10.37-11.11
	c4.77-2.64,11-4.42,18.7-5.34c7.69-0.93,17.09-1.39,28.21-1.39c11.11,0,20.51,0.46,28.21,1.39c7.69,0.92,13.92,2.7,18.69,5.34
	c1.11,0.61,2.15,1.28,3.11,2.01c3.2,2.4,5.62,5.44,7.26,9.1c1.32,2.95,2.23,6.45,2.74,10.51c0.31,2.51,0.47,5.24,0.47,8.19
	c0,2.95-0.16,5.68-0.47,8.19v1c0,10.83,1.89,20.27,5.67,28.32c3.2,6.84,7.95,12.72,14.24,17.65c14.18-10.27,22.22-25.42,24.13-45.44
	c0.3-3.12,0.45-6.36,0.45-9.72C818.82,144.91,818.68,141.83,818.4,138.86z"/>
<path d="M961.97,76.72v80.57c0,43.17-29.71,64.75-89.12,64.75c-17.24,0-32.05-1.35-44.45-4.06c-9.77-2.13-18.2-5.11-25.27-8.93
	c-1.9-1.02-3.69-2.11-5.39-3.25c-1.22-0.82-2.38-1.66-3.5-2.54c-6.29-4.93-11.04-10.81-14.24-17.65
	c-3.78-8.05-5.67-17.49-5.67-28.32v-17.38c-0.51-4.06-1.42-7.56-2.74-10.51c-1.64-3.66-4.06-6.7-7.26-9.1V79.88
	c3.5,0.91,6.83,1.94,10,3.09c1.71,0.62,3.37,1.27,4.99,1.95c0,0,0,0.01,0.01,0.01c0.1,0.04,0.21,0.09,0.31,0.14
	c0.65,0.27,1.3,0.56,1.93,0.85c0.72,0.33,1.43,0.67,2.13,1.02c0.19,0.09,0.37,0.18,0.56,0.28c0.17,0.08,0.33,0.16,0.5,0.25
	c0.42,0.21,0.83,0.42,1.24,0.64c0.63,0.34,1.24,0.68,1.85,1.03c0.39,0.22,0.77,0.44,1.15,0.67c0.03,0.01,0.05,0.02,0.08,0.05
	c0.52,0.3,1.03,0.61,1.53,0.93c0.69,0.43,1.37,0.87,2.03,1.32c1.48,1,2.9,2.05,4.25,3.16c0.29,0.23,0.57,0.46,0.85,0.71
	c0.32,0.26,0.64,0.54,0.95,0.82c0.31,0.27,0.62,0.55,0.92,0.83c0.5,0.46,0.99,0.93,1.47,1.41c0.06,0.05,0.13,0.12,0.2,0.2
	c0.38,0.37,0.75,0.75,1.11,1.14c0.35,0.36,0.69,0.73,1.02,1.11c0.1,0.11,0.2,0.22,0.29,0.33c0.13,0.15,0.26,0.29,0.39,0.44
	c0.25,0.29,0.49,0.58,0.73,0.88c0.18,0.21,0.36,0.43,0.53,0.65c0.12,0.14,0.23,0.28,0.34,0.43c0.17,0.2,0.32,0.41,0.47,0.61
	c1.21,1.59,2.34,3.26,3.38,5c0.06,0.1,0.12,0.19,0.17,0.29c0.21,0.35,0.42,0.71,0.62,1.08c0.21,0.36,0.41,0.73,0.6,1.1
	c0.2,0.37,0.39,0.74,0.58,1.12c0.19,0.37,0.38,0.75,0.56,1.13c1.1,2.29,2.06,4.69,2.88,7.2c0.14,0.41,0.27,0.81,0.39,1.22
	c0.13,0.42,0.26,0.84,0.38,1.27c0.01,0,0.01,0.01,0.01,0.01l2.63,14.13c0.02,0.16,0.03,0.32,0.04,0.48
	c0.28,2.97,0.42,6.05,0.42,9.24c0,3.36-0.15,6.6-0.45,9.72c0.04,5.04,0.75,9.28,2.13,12.72c0.92,2.3,2.36,4.33,4.33,6.06
	c1.07,0.95,2.3,1.81,3.68,2.59c3.92,2.21,9.44,3.78,16.56,4.71c7.12,0.92,16.38,1.38,27.78,1.38c8.55,0,15.67-0.49,21.37-1.49
	c5.7-1,10.26-2.64,13.68-4.92c3.42-2.27,5.88-5.19,7.37-8.76c1.5-3.56,2.25-7.83,2.25-12.82V76.72H961.97z"/>
<path d="M917.52,76.72v80.57c0,4.99-0.75,9.26-2.25,12.82c-1.49,3.57-3.95,6.49-7.37,8.76c-3.42,2.28-7.98,3.92-13.68,4.92
	c-5.7,1-12.82,1.49-21.37,1.49c-11.4,0-20.66-0.46-27.78-1.38c-7.12-0.93-12.64-2.5-16.56-4.71c-1.38-0.78-2.61-1.64-3.68-2.59
	c-1.97-1.73-3.41-3.76-4.33-6.06c-1.38-3.44-2.09-7.68-2.13-12.72c-0.01-0.17-0.01-0.35-0.01-0.53v-18.91
	c-0.12-1.19-0.25-2.37-0.42-3.53c-0.04-0.32-0.09-0.64-0.14-0.95l-2.07-9.65c0,0,0-0.01-0.01-0.01c-0.12-0.43-0.25-0.85-0.38-1.27
	c-0.12-0.41-0.25-0.81-0.39-1.22c-0.82-2.51-1.78-4.91-2.88-7.2c-0.18-0.38-0.37-0.76-0.56-1.13c-0.19-0.38-0.38-0.75-0.58-1.12
	c-0.19-0.37-0.39-0.74-0.6-1.1c-0.2-0.37-0.41-0.73-0.62-1.08c-0.05-0.1-0.11-0.19-0.17-0.29c-1.04-1.74-2.17-3.41-3.38-5
	c-0.15-0.2-0.3-0.41-0.47-0.61c-0.11-0.15-0.22-0.29-0.34-0.43c-0.17-0.22-0.35-0.44-0.53-0.65c-0.24-0.3-0.48-0.59-0.73-0.88
	c-0.13-0.15-0.26-0.29-0.39-0.44c-0.09-0.11-0.19-0.22-0.29-0.33c-0.33-0.38-0.67-0.75-1.02-1.11c-0.36-0.39-0.73-0.77-1.11-1.14
	c-0.07-0.08-0.14-0.15-0.2-0.2c-0.48-0.48-0.97-0.95-1.47-1.41c-0.3-0.28-0.61-0.56-0.92-0.83c-0.31-0.28-0.63-0.56-0.95-0.82
	c-0.28-0.25-0.56-0.48-0.85-0.71c-1.35-1.11-2.77-2.16-4.25-3.16c-0.66-0.45-1.34-0.89-2.03-1.32c-0.5-0.32-1.01-0.63-1.53-0.93
	c-0.03-0.03-0.05-0.04-0.08-0.05c-0.38-0.23-0.76-0.45-1.15-0.67c-0.61-0.35-1.22-0.69-1.85-1.03c-0.41-0.22-0.82-0.43-1.24-0.64
	c-0.17-0.09-0.33-0.17-0.5-0.25c-0.19-0.1-0.37-0.19-0.56-0.28c-0.7-0.35-1.41-0.69-2.13-1.02c-0.63-0.29-1.28-0.58-1.93-0.85
	c-0.1-0.05-0.21-0.1-0.31-0.14c-0.01,0-0.01-0.01-0.01-0.01c-1.62-0.68-3.28-1.33-4.99-1.95v74.32c0,10.83,1.89,20.27,5.67,28.32
	c3.2,6.84,7.95,12.72,14.24,17.65c1.12,0.88,2.28,1.72,3.5,2.54c1.7,1.14,3.49,2.23,5.39,3.25c7.07,3.82,15.5,6.8,25.27,8.93
	c12.4,2.71,27.21,4.06,44.45,4.06c59.41,0,89.12-21.58,89.12-64.75V76.72H917.52z"/>
<path d="M815.73,124.25l2.07,9.65c0.06,0.31,0.1,0.63,0.14,0.95c0.17,1.16,0.3,2.34,0.42,3.53L815.73,124.25z"/>
<path d="M1236.22,182.93v-19.44h87.82l25.44-32.49h-113.26v-7.23h-44.46v95.92h137.64l28.41-36.76H1236.22z"/>
<path d="M84.1,180.48c-5.13-1.64-9.58-3.96-13.35-6.95c-3.78-2.99-6.7-6.59-8.77-10.79c-2.06-4.2-3.09-8.87-3.09-14
	s1.06-9.83,3.2-14.1c0.49-0.97,1.02-1.91,1.59-2.82c-9.73,3.77-19.41,9.34-26.6,17.56c-7.9,9.04-11.84,20.34-11.79,33.69
	c3.77,5.88,8.37,11.15,13.84,15.8c7.62,6.48,16.7,11.57,27.25,15.28c10.54,3.7,22.01,5.55,34.4,5.55h71.81L201,182.93H100.77
	C94.79,182.93,89.23,182.12,84.1,180.48z"/>
<path d="M200.96,76.77l0.04-0.05H100.77c-2.77,0-5.49,0.08-8.17,0.26c-9.3,0.57-18.05,2.17-26.23,4.76
	c-10.55,3.35-19.63,8.12-27.25,14.32c-7.63,6.2-13.61,13.61-17.95,22.23c-4.35,8.62-6.52,18.13-6.52,28.53
	c0,6.67,0.9,13.02,2.69,19.07c2.25-8.64,6.33-16.38,12.24-23.13c16.75-19.13,43.92-25.58,60.04-27.75c0.98-0.2,1.97-0.38,2.98-0.53
	c2.63-0.38,5.35-0.57,8.17-0.57h1.6c0.17,0,0.3-0.01,0.37-0.01l0,0.01h69.83l0.11-0.14h197.25l28.27-37H200.96z"/>
<path d="M1359.35,76.77h-189.12l0.04-0.05H1046.1c-10.83,0-20.13,1.07-27.89,3.21c-7.77,2.14-14.1,5.13-19.02,8.98
	c-4.92,3.85-8.55,8.51-10.9,14c-2.35,5.49-3.53,11.58-3.53,18.27c0,6.13,1.07,11.72,3.21,16.78c0.12,0.28,0.25,0.55,0.38,0.83
	c11.2-22.51,44.09-24.6,51.57-24.78c0.88-0.05,1.79-0.09,2.76-0.09h99.16l0.1-0.14h188.93L1359.35,76.77z"/>
<path d="M1158.43,143.5c-9.12-6.48-22.44-9.72-39.96-9.72h-77.79c-5.13,0-8.94-0.75-11.43-2.24c-1.81-1.08-2.95-2.75-3.45-5
	c-12.13,2.14-28.52,7.73-32.31,22.28c0.74,0.71,1.5,1.4,2.32,2.06c4.41,3.56,9.97,6.34,16.67,8.33c6.7,2,14.67,2.99,23.94,2.99
	h77.79c5.27,0,9.12,0.79,11.54,2.35c2.42,1.57,3.63,4.2,3.63,7.91c0,3.71-1.21,6.38-3.63,8.01c-2.42,1.64-6.27,2.46-11.54,2.46
	h-108.14l-28.42,36.76h133.14c10.83,0,20.12-1.07,27.89-3.21c7.76-2.14,14.14-5.2,19.13-9.19c4.99-3.99,8.62-8.9,10.9-14.75
	c2.28-5.84,3.42-12.4,3.42-19.66C1172.11,159.78,1167.55,149.99,1158.43,143.5z"/>
<g>
	<polygon points="499.6,127.37 458.08,127.37 458.08,76.72 413.63,76.72 413.63,219.69 458.08,219.69 458.08,164.56 499.6,164.56 	
		"/>
	<polygon points="543.14,76.72 543.14,127.37 509.6,127.37 509.6,164.56 543.14,164.56 543.14,219.69 587.16,219.69 587.16,76.72 	
		"/>
</g>
<g>
	<rect x="846.23" y="116.4" width="21.49" height="21.49"/>
	<rect x="846.23" y="142.28" width="21.49" height="21.49"/>
	<rect x="872.11" y="142.28" width="21.49" height="21.49"/>
	<rect x="872.11" y="116.4" width="21.49" height="21.49"/>
</g>
<polygon points="937.58,26.84 893.6,66.77 985.14,66.77 "/>
<g>
	<path d="M64.29,293.81l-6.65,8.6h-16.8c-2.9,0-5.58-0.43-8.05-1.3c-2.47-0.87-4.59-2.06-6.38-3.58c-1.78-1.52-3.18-3.32-4.2-5.4
		c-1.02-2.08-1.52-4.34-1.52-6.77c0-2.43,0.51-4.66,1.52-6.67c1.02-2.02,2.42-3.75,4.2-5.2c1.78-1.45,3.91-2.57,6.38-3.35
		c2.47-0.78,5.15-1.17,8.05-1.17h23.45l-6.65,8.7h-16.8c-1.4,0-2.7,0.2-3.9,0.6c-1.2,0.4-2.23,0.96-3.1,1.68
		c-0.87,0.72-1.55,1.57-2.05,2.57s-0.75,2.1-0.75,3.3c0,1.2,0.24,2.29,0.72,3.27c0.48,0.98,1.17,1.83,2.05,2.53
		c0.88,0.7,1.92,1.24,3.13,1.63c1.2,0.38,2.5,0.58,3.9,0.58H64.29z"/>
	<path d="M97.54,268.41c8.13,0,14.24,1.38,18.33,4.15c4.08,2.77,6.13,7.13,6.13,13.1c0,6-2.03,10.38-6.1,13.15
		c-4.07,2.77-10.18,4.15-18.35,4.15c-8.2,0-14.32-1.38-18.38-4.15c-4.05-2.77-6.07-7.15-6.07-13.15c0-5.97,2.03-10.33,6.1-13.1
		C83.25,269.79,89.37,268.41,97.54,268.41z M97.54,294.26c2.6,0,4.8-0.11,6.6-0.32c1.8-0.22,3.26-0.64,4.38-1.28
		c1.12-0.63,1.93-1.51,2.43-2.63c0.5-1.12,0.75-2.58,0.75-4.38s-0.25-3.26-0.75-4.38c-0.5-1.12-1.31-1.98-2.43-2.6
		c-1.12-0.62-2.57-1.03-4.38-1.25c-1.8-0.22-4-0.33-6.6-0.33c-2.6,0-4.8,0.11-6.6,0.33c-1.8,0.22-3.26,0.63-4.38,1.25
		c-1.12,0.62-1.93,1.48-2.43,2.6c-0.5,1.12-0.75,2.58-0.75,4.38s0.25,3.26,0.75,4.38c0.5,1.12,1.31,1.99,2.43,2.63
		c1.12,0.63,2.57,1.06,4.38,1.28C92.74,294.15,94.94,294.26,97.54,294.26z"/>
	<path d="M167.39,302.96c-0.67,0-1.32-0.11-1.97-0.33c-0.65-0.22-1.38-0.71-2.18-1.47l-20.5-18.4v19.65h-9.4v-27.75
		c0-1.1,0.16-2.05,0.48-2.85c0.32-0.8,0.73-1.45,1.25-1.95c0.52-0.5,1.12-0.87,1.8-1.1c0.68-0.23,1.39-0.35,2.13-0.35
		c0.63,0,1.27,0.11,1.93,0.33c0.65,0.22,1.39,0.71,2.22,1.47l20.5,18.4v-19.65h9.45v27.7c0,1.1-0.16,2.05-0.48,2.85
		c-0.32,0.8-0.73,1.46-1.25,1.98c-0.52,0.52-1.13,0.89-1.82,1.13C168.84,302.84,168.12,302.96,167.39,302.96z"/>
	<path d="M216.44,282.31c4.1,0,7.22,0.76,9.35,2.27c2.13,1.52,3.2,3.81,3.2,6.88c0,1.7-0.27,3.23-0.8,4.6
		c-0.53,1.37-1.38,2.52-2.55,3.45c-1.17,0.93-2.66,1.65-4.48,2.15c-1.82,0.5-3.99,0.75-6.52,0.75h-31.15l6.65-8.6h25.3
		c1.23,0,2.13-0.19,2.7-0.58c0.57-0.38,0.85-1.01,0.85-1.88c0-0.87-0.28-1.48-0.85-1.85c-0.57-0.37-1.47-0.55-2.7-0.55h-18.2
		c-2.17,0-4.03-0.23-5.6-0.7c-1.57-0.47-2.87-1.12-3.9-1.95c-1.03-0.83-1.8-1.84-2.3-3.03c-0.5-1.18-0.75-2.49-0.75-3.92
		c0-1.57,0.27-2.99,0.83-4.28c0.55-1.28,1.4-2.38,2.55-3.27c1.15-0.9,2.63-1.6,4.45-2.1c1.82-0.5,3.99-0.75,6.52-0.75h29.05
		l-6.65,8.7h-23.2c-1.2,0-2.09,0.17-2.68,0.5c-0.58,0.33-0.88,0.93-0.88,1.8c0,0.87,0.29,1.48,0.88,1.83
		c0.58,0.35,1.48,0.53,2.68,0.53H216.44z"/>
	<path d="M278.39,268.96l-6.7,8.7h-11.95v24.75h-10.35v-24.75h-15.7l6.7-8.7H278.39z"/>
	<path d="M331.89,302.41h-13.85l-7.45-8.85h-15.9v8.85h-10.35v-17.1h29.1c1.6,0,2.95-0.33,4.05-1c1.1-0.67,1.65-1.58,1.65-2.75
		c0-1.3-0.5-2.28-1.5-2.93c-1-0.65-2.4-0.97-4.2-0.97h-29.1l6.75-8.7h21.5c1.9,0,3.87,0.17,5.9,0.53c2.03,0.35,3.88,0.97,5.55,1.88
		c1.67,0.9,3.04,2.12,4.13,3.65c1.08,1.53,1.63,3.5,1.63,5.9c0,1.3-0.2,2.53-0.6,3.7s-0.98,2.22-1.73,3.15
		c-0.75,0.93-1.67,1.73-2.75,2.38c-1.08,0.65-2.31,1.11-3.67,1.38c0.57,0.43,1.2,0.98,1.9,1.65c0.7,0.67,1.63,1.58,2.8,2.75
		L331.89,302.41z"/>
	<path d="M385.29,287.81c0,10.1-6.95,15.15-20.85,15.15c-4.03,0-7.5-0.32-10.4-0.95s-5.29-1.58-7.18-2.85
		c-1.88-1.27-3.27-2.84-4.15-4.72c-0.88-1.88-1.32-4.09-1.32-6.63v-18.85h10.3v18.85c0,1.23,0.17,2.27,0.5,3.1
		c0.33,0.83,0.96,1.51,1.88,2.03c0.92,0.52,2.21,0.88,3.88,1.1c1.67,0.22,3.83,0.33,6.5,0.33c2,0,3.67-0.12,5-0.35
		c1.33-0.23,2.4-0.62,3.2-1.15c0.8-0.53,1.38-1.22,1.72-2.05c0.35-0.83,0.53-1.83,0.53-3v-18.85h10.4V287.81z"/>
	<path d="M439.94,293.81l-6.65,8.6h-16.8c-2.9,0-5.58-0.43-8.05-1.3c-2.47-0.87-4.59-2.06-6.38-3.58c-1.78-1.52-3.18-3.32-4.2-5.4
		c-1.02-2.08-1.52-4.34-1.52-6.77c0-2.43,0.51-4.66,1.52-6.67c1.02-2.02,2.42-3.75,4.2-5.2c1.78-1.45,3.91-2.57,6.38-3.35
		c2.47-0.78,5.15-1.17,8.05-1.17h23.45l-6.65,8.7h-16.8c-1.4,0-2.7,0.2-3.9,0.6c-1.2,0.4-2.23,0.96-3.1,1.68
		c-0.87,0.72-1.55,1.57-2.05,2.57s-0.75,2.1-0.75,3.3c0,1.2,0.24,2.29,0.72,3.27c0.48,0.98,1.17,1.83,2.05,2.53
		c0.88,0.7,1.92,1.24,3.13,1.63c1.2,0.38,2.5,0.58,3.9,0.58H439.94z"/>
	<path d="M491.34,268.96l-6.7,8.7h-11.95v24.75h-10.35v-24.75h-15.7l6.7-8.7H491.34z"/>
	<path d="M511.24,302.41h-10.35v-33.45h10.35V302.41z"/>
	<path d="M547.34,268.41c8.13,0,14.24,1.38,18.33,4.15c4.08,2.77,6.13,7.13,6.13,13.1c0,6-2.03,10.38-6.1,13.15
		c-4.07,2.77-10.18,4.15-18.35,4.15c-8.2,0-14.32-1.38-18.38-4.15c-4.05-2.77-6.07-7.15-6.07-13.15c0-5.97,2.03-10.33,6.1-13.1
		C533.05,269.79,539.17,268.41,547.34,268.41z M547.34,294.26c2.6,0,4.8-0.11,6.6-0.32c1.8-0.22,3.26-0.64,4.38-1.28
		c1.12-0.63,1.93-1.51,2.43-2.63c0.5-1.12,0.75-2.58,0.75-4.38s-0.25-3.26-0.75-4.38c-0.5-1.12-1.31-1.98-2.43-2.6
		c-1.12-0.62-2.57-1.03-4.38-1.25c-1.8-0.22-4-0.33-6.6-0.33c-2.6,0-4.8,0.11-6.6,0.33c-1.8,0.22-3.26,0.63-4.38,1.25
		c-1.12,0.62-1.93,1.48-2.43,2.6c-0.5,1.12-0.75,2.58-0.75,4.38s0.25,3.26,0.75,4.38c0.5,1.12,1.31,1.99,2.43,2.63
		c1.12,0.63,2.57,1.06,4.38,1.28C542.54,294.15,544.74,294.26,547.34,294.26z"/>
	<path d="M617.19,302.96c-0.67,0-1.32-0.11-1.97-0.33c-0.65-0.22-1.38-0.71-2.18-1.47l-20.5-18.4v19.65h-9.4v-27.75
		c0-1.1,0.16-2.05,0.48-2.85c0.32-0.8,0.73-1.45,1.25-1.95c0.52-0.5,1.12-0.87,1.8-1.1c0.68-0.23,1.39-0.35,2.13-0.35
		c0.63,0,1.27,0.11,1.93,0.33c0.65,0.22,1.39,0.71,2.22,1.47l20.5,18.4v-19.65h9.45v27.7c0,1.1-0.16,2.05-0.48,2.85
		c-0.32,0.8-0.73,1.46-1.25,1.98c-0.52,0.52-1.13,0.89-1.82,1.13C618.64,302.84,617.92,302.96,617.19,302.96z"/>
	<path d="M703.18,293.81l-6.65,8.6h-16.8c-2.9,0-5.58-0.43-8.05-1.3c-2.47-0.87-4.59-2.06-6.38-3.58c-1.78-1.52-3.18-3.32-4.2-5.4
		c-1.02-2.08-1.53-4.34-1.53-6.77c0-2.43,0.51-4.66,1.53-6.67c1.02-2.02,2.42-3.75,4.2-5.2c1.78-1.45,3.91-2.57,6.38-3.35
		c2.47-0.78,5.15-1.17,8.05-1.17h23.45l-6.65,8.7h-16.8c-1.4,0-2.7,0.2-3.9,0.6c-1.2,0.4-2.23,0.96-3.1,1.68
		c-0.87,0.72-1.55,1.57-2.05,2.57s-0.75,2.1-0.75,3.3c0,1.2,0.24,2.29,0.72,3.27c0.48,0.98,1.17,1.83,2.05,2.53s1.93,1.24,3.13,1.63
		c1.2,0.38,2.5,0.58,3.9,0.58H703.18z"/>
	<path d="M736.43,268.41c8.13,0,14.24,1.38,18.33,4.15c4.08,2.77,6.13,7.13,6.13,13.1c0,6-2.03,10.38-6.1,13.15
		c-4.07,2.77-10.18,4.15-18.35,4.15c-8.2,0-14.33-1.38-18.38-4.15s-6.08-7.15-6.08-13.15c0-5.97,2.03-10.33,6.1-13.1
		C722.15,269.79,728.27,268.41,736.43,268.41z M736.43,294.26c2.6,0,4.8-0.11,6.6-0.32c1.8-0.22,3.26-0.64,4.38-1.28
		c1.12-0.63,1.92-1.51,2.42-2.63c0.5-1.12,0.75-2.58,0.75-4.38s-0.25-3.26-0.75-4.38c-0.5-1.12-1.31-1.98-2.42-2.6
		c-1.12-0.62-2.58-1.03-4.38-1.25c-1.8-0.22-4-0.33-6.6-0.33c-2.6,0-4.8,0.11-6.6,0.33s-3.26,0.63-4.38,1.25
		c-1.12,0.62-1.92,1.48-2.42,2.6c-0.5,1.12-0.75,2.58-0.75,4.38s0.25,3.26,0.75,4.38c0.5,1.12,1.31,1.99,2.42,2.63
		c1.12,0.63,2.58,1.06,4.38,1.28S733.83,294.26,736.43,294.26z"/>
	<path d="M794.03,281.41c0.73,1.3,1.38,2.44,1.92,3.42c0.55,0.98,1.03,1.86,1.45,2.63c0.42,0.77,0.78,1.47,1.1,2.1
		s0.63,1.25,0.93,1.85c0.27-0.6,0.56-1.21,0.88-1.83c0.32-0.62,0.68-1.32,1.1-2.1c0.42-0.78,0.9-1.66,1.45-2.63s1.19-2.1,1.92-3.4
		l5.35-9.5c0.6-1.07,1.36-1.92,2.28-2.58c0.92-0.65,2.06-0.97,3.42-0.97c1.3,0,2.48,0.38,3.53,1.13s1.81,1.91,2.27,3.47l8.45,29.4
		h-10.3l-3.15-11.65c-0.53-1.9-0.98-3.57-1.35-5c-0.37-1.43-0.68-2.83-0.95-4.2c-0.57,1.17-1.2,2.46-1.9,3.88
		c-0.7,1.42-1.62,3.21-2.75,5.38l-4.5,8.4c-0.43,0.83-0.88,1.49-1.33,1.98s-0.91,0.86-1.38,1.13c-0.47,0.27-0.97,0.44-1.5,0.52
		c-0.53,0.08-1.12,0.13-1.75,0.13c-0.63,0-1.22-0.04-1.75-0.13c-0.53-0.08-1.03-0.26-1.5-0.52c-0.47-0.27-0.92-0.64-1.38-1.13
		s-0.89-1.14-1.33-1.98l-4.5-8.45c-0.6-1.13-1.13-2.15-1.6-3.05c-0.47-0.9-0.89-1.71-1.28-2.42c-0.38-0.72-0.72-1.38-1-1.97
		c-0.28-0.6-0.56-1.18-0.83-1.75c-0.27,1.33-0.58,2.72-0.95,4.17s-0.8,3.13-1.3,5.02l-3.15,11.65h-10.15l8.65-29.4
		c0.47-1.57,1.23-2.72,2.3-3.47c1.07-0.75,2.25-1.13,3.55-1.13c1.33,0,2.46,0.32,3.38,0.95c0.92,0.63,1.67,1.5,2.28,2.6
		L794.03,281.41z"/>
	<path d="M884.28,281.51c0,1.87-0.37,3.56-1.1,5.08c-0.73,1.52-1.81,2.81-3.23,3.88c-1.42,1.07-3.14,1.9-5.17,2.5
		c-2.03,0.6-4.35,0.9-6.95,0.9h-17.5v8.55h-10.3v-17.1h28.8c1.6,0,2.84-0.35,3.73-1.05c0.88-0.7,1.33-1.63,1.33-2.8
		c0-1.17-0.44-2.09-1.33-2.77c-0.88-0.68-2.13-1.03-3.73-1.03h-28.8l6.85-8.7h21c2.6,0,4.92,0.31,6.95,0.92
		c2.03,0.62,3.75,1.48,5.15,2.58c1.4,1.1,2.47,2.42,3.2,3.95C883.92,277.94,884.28,279.64,884.28,281.51z"/>
	<path d="M902.03,302.41l6.25-8.6h8.4c1,0,2.04,0,3.13,0c1.08,0,2.02,0.03,2.83,0.1c-0.47-0.6-1.01-1.36-1.63-2.28
		c-0.62-0.92-1.21-1.77-1.78-2.57l-6-8.85l-15.7,22.2h-12.25l21.45-30.25c0.7-0.97,1.58-1.83,2.65-2.6
		c1.07-0.77,2.42-1.15,4.05-1.15c1.57,0,2.88,0.36,3.92,1.08s1.94,1.61,2.67,2.67l20.9,30.25H902.03z"/>
	<path d="M984.78,302.96c-0.67,0-1.33-0.11-1.97-0.33c-0.65-0.22-1.38-0.71-2.17-1.47l-20.5-18.4v19.65h-9.4v-27.75
		c0-1.1,0.16-2.05,0.47-2.85c0.32-0.8,0.73-1.45,1.25-1.95s1.12-0.87,1.8-1.1c0.68-0.23,1.39-0.35,2.13-0.35
		c0.63,0,1.27,0.11,1.92,0.33c0.65,0.22,1.39,0.71,2.22,1.47l20.5,18.4v-19.65h9.45v27.7c0,1.1-0.16,2.05-0.47,2.85
		c-0.32,0.8-0.73,1.46-1.25,1.98c-0.52,0.52-1.13,0.89-1.83,1.13C986.23,302.84,985.52,302.96,984.78,302.96z"/>
	<path d="M1050.73,268.96l-19.85,22.4v11.05h-10.4v-11.1l-20.4-22.35h13.3l8,9.3c0.27,0.3,0.62,0.69,1.05,1.18
		c0.43,0.48,0.88,0.99,1.35,1.52c0.47,0.53,0.9,1.03,1.3,1.5c0.4,0.47,0.68,0.82,0.85,1.05c0.33-0.47,0.82-1.1,1.45-1.9
		c0.63-0.8,1.55-1.93,2.75-3.4l7.6-9.25H1050.73z"/>
	<path d="M1126.48,302.41h-10.3v-12.9h-19.9v12.9h-10.4v-33.45h10.4v11.85h19.9v-11.85h10.3V302.41z"/>
	<path d="M1162.48,268.41c8.13,0,14.24,1.38,18.33,4.15c4.08,2.77,6.13,7.13,6.13,13.1c0,6-2.03,10.38-6.1,13.15
		c-4.07,2.77-10.18,4.15-18.35,4.15c-8.2,0-14.33-1.38-18.38-4.15s-6.08-7.15-6.08-13.15c0-5.97,2.03-10.33,6.1-13.1
		C1148.2,269.79,1154.32,268.41,1162.48,268.41z M1162.48,294.26c2.6,0,4.8-0.11,6.6-0.32c1.8-0.22,3.26-0.64,4.38-1.28
		c1.12-0.63,1.92-1.51,2.42-2.63c0.5-1.12,0.75-2.58,0.75-4.38s-0.25-3.26-0.75-4.38c-0.5-1.12-1.31-1.98-2.42-2.6
		c-1.12-0.62-2.58-1.03-4.38-1.25c-1.8-0.22-4-0.33-6.6-0.33c-2.6,0-4.8,0.11-6.6,0.33s-3.26,0.63-4.38,1.25
		c-1.12,0.62-1.92,1.48-2.42,2.6c-0.5,1.12-0.75,2.58-0.75,4.38s0.25,3.26,0.75,4.38c0.5,1.12,1.31,1.99,2.42,2.63
		c1.12,0.63,2.58,1.06,4.38,1.28S1159.88,294.26,1162.48,294.26z"/>
	<path d="M1241.88,287.81c0,10.1-6.95,15.15-20.85,15.15c-4.03,0-7.5-0.32-10.4-0.95c-2.9-0.63-5.29-1.58-7.17-2.85
		c-1.88-1.27-3.27-2.84-4.15-4.72c-0.88-1.88-1.33-4.09-1.33-6.63v-18.85h10.3v18.85c0,1.23,0.17,2.27,0.5,3.1
		c0.33,0.83,0.96,1.51,1.88,2.03c0.92,0.52,2.21,0.88,3.88,1.1c1.67,0.22,3.83,0.33,6.5,0.33c2,0,3.67-0.12,5-0.35
		c1.33-0.23,2.4-0.62,3.2-1.15s1.38-1.22,1.72-2.05c0.35-0.83,0.53-1.83,0.53-3v-18.85h10.4V287.81z"/>
	<path d="M1284.98,282.31c4.1,0,7.22,0.76,9.35,2.27c2.13,1.52,3.2,3.81,3.2,6.88c0,1.7-0.27,3.23-0.8,4.6
		c-0.53,1.37-1.38,2.52-2.55,3.45c-1.17,0.93-2.66,1.65-4.47,2.15c-1.82,0.5-3.99,0.75-6.53,0.75h-31.15l6.65-8.6h25.3
		c1.23,0,2.13-0.19,2.7-0.58c0.57-0.38,0.85-1.01,0.85-1.88c0-0.87-0.28-1.48-0.85-1.85c-0.57-0.37-1.47-0.55-2.7-0.55h-18.2
		c-2.17,0-4.03-0.23-5.6-0.7c-1.57-0.47-2.87-1.12-3.9-1.95c-1.03-0.83-1.8-1.84-2.3-3.03c-0.5-1.18-0.75-2.49-0.75-3.92
		c0-1.57,0.27-2.99,0.82-4.28c0.55-1.28,1.4-2.38,2.55-3.27c1.15-0.9,2.63-1.6,4.45-2.1s3.99-0.75,6.53-0.75h29.05l-6.65,8.7h-23.2
		c-1.2,0-2.09,0.17-2.67,0.5c-0.58,0.33-0.88,0.93-0.88,1.8c0,0.87,0.29,1.48,0.88,1.83c0.58,0.35,1.47,0.53,2.67,0.53H1284.98z"/>
	<path d="M1347.23,293.81l-6.65,8.6h-32.2v-33.45h38.75l-6.7,8.7h-21.65v4h26.5l-5.95,7.6h-20.55v4.55H1347.23z"/>
</g>
</svg>
