<svg xmlns="http://www.w3.org/2000/svg" width="85.354" height="85.341" viewBox="0 0 85.354 85.341">
  <defs>
    <style>
      .cls-1 {
        opacity: 0.8;
      }
    </style>
  </defs>
  <g id="paint-bucket" class="cls-1" transform="translate(-0.001 -0.5)">
    <path id="Path_215" data-name="Path 215" d="M53.5,1.4C46.945-.322,41.267.444,37.313,3.546l-.021-.113L24.473,5.858c-10.206,1.93-17.982,10-18.91,19.629a21.958,21.958,0,0,0,.712,8.139L4.09,35.8C.13,39.756-1,45.924.9,53.162c1.78,6.765,6.051,13.781,12.025,19.755s12.99,10.245,19.755,12.025c6.148,1.618,12.842,1.33,17.358-3.179L61.005,70.975v2.2A12.462,12.462,0,0,0,75.4,85.668c6.145-1,9.941-6.814,9.941-13.032V40.055c.334-8.776-4.179-18.726-12.081-26.627C67.282,7.454,60.267,3.183,53.5,1.4ZM10.539,25.967c.716-7.428,6.829-13.677,14.863-15.2l4.8-.909L10.542,29.389a17.412,17.412,0,0,1,0-3.422Zm35.99,52.239-.014.014c-5.749,5.749-19.511,1.7-30.05-8.838C11.106,64.024,7.3,57.812,5.739,51.89c-1.434-5.448-.764-9.908,1.88-12.552l.779-.774a21.225,21.225,0,0,0,17.06,10.361,7.508,7.508,0,1,0,.027-5.008A16.185,16.185,0,0,1,12.1,34.89L32.053,15.074a24.558,24.558,0,0,0,.9,6.646c1.77,6.589,6.039,13.512,12.022,19.495L58.787,55.028a7.576,7.576,0,0,1,2.219,5.313v3.621ZM30.772,44.69a2.5,2.5,0,1,1,0,3.535A2.5,2.5,0,0,1,30.772,44.69ZM80.338,72.636c0,3.559-1.973,7.484-5.744,8.1a7.466,7.466,0,0,1-8.589-7.562V60.34a12.609,12.609,0,0,0-3.684-8.848S47.216,36.351,46.609,35.673H73.482a6.468,6.468,0,0,1,4.678,1.885,7.843,7.843,0,0,1,2.178,5.626V72.636ZM73.486,30.673H42.691C36.677,21.8,35.172,12.624,39.671,8.124c5.75-5.749,19.511-1.7,30.051,8.839a38.116,38.116,0,0,1,9.49,15.18,11.692,11.692,0,0,0-5.726-1.47Zm0,0" transform="translate(0 0)"/>
  </g>
</svg>
