<svg xmlns="http://www.w3.org/2000/svg" width="82.487" height="85.341" viewBox="0 0 82.487 85.341">
  <defs>
    <style>
      .cls-1 {
        opacity: 0.8;
      }
    </style>
  </defs>
  <g id="clock" class="cls-1" transform="translate(-3.404)">
    <path id="Path_213" data-name="Path 213" d="M83.375,5H66.891V2.516a2.516,2.516,0,0,0-5.031,0V5h-14.7V2.516a2.516,2.516,0,0,0-5.031,0V5H28.059V2.516a2.516,2.516,0,0,0-5.031,0V5H5.92A2.516,2.516,0,0,0,3.4,7.513V64.355A2.516,2.516,0,0,0,5.92,66.871H21.36a23.915,23.915,0,0,0,46.574,0h15.44a2.516,2.516,0,0,0,2.516-2.516V7.513A2.515,2.515,0,0,0,83.375,5ZM23.028,10.028V12.3a2.516,2.516,0,1,0,5.031,0V10.028H42.132V12.3a2.516,2.516,0,0,0,5.031,0V10.028h14.7V12.3a2.516,2.516,0,0,0,5.031,0V10.028H80.86V20.316H8.435V10.028ZM44.647,80.31a18.89,18.89,0,1,1,18.89-18.89,18.911,18.911,0,0,1-18.89,18.89ZM68.558,61.84c0-.14.01-.279.01-.419a23.921,23.921,0,1,0-47.842,0c0,.14.008.279.01.419H8.435V25.348H80.859V61.84h-12.3Z"/>
    <path id="Path_214" data-name="Path 214" d="M100.8,127.664v-12.17a2.516,2.516,0,1,0-5.031,0v13.212a2.517,2.517,0,0,0,.737,1.779l5.782,5.782a2.516,2.516,0,0,0,3.558-3.558Z" transform="translate(-53.639 -65.609)"/>
  </g>
</svg>
