<svg xmlns="http://www.w3.org/2000/svg" width="71.71" height="85.342" viewBox="0 0 71.71 85.342">
  <defs>
    <style>
      .cls-1 {
        opacity: 0.8;
      }
    </style>
  </defs>
  <g id="security" class="cls-1" transform="translate(-17.112 0)">
    <path id="Path_10" data-name="Path 10" d="M88.73,21.974c-.044-2.3-.086-4.481-.086-6.586A2.987,2.987,0,0,0,85.657,12.4c-12.775,0-22.5-3.671-30.609-11.554a2.986,2.986,0,0,0-4.165,0C42.776,8.729,33.051,12.4,20.277,12.4a2.987,2.987,0,0,0-2.987,2.987c0,2.106-.041,4.284-.086,6.588-.409,21.442-.97,50.808,34.783,63.2a2.984,2.984,0,0,0,1.956,0C89.7,72.784,89.139,43.417,88.73,21.974ZM52.965,79.185c-30.663-11.139-30.2-35.54-29.788-57.1.025-1.294.049-2.547.065-3.777,11.965-.505,21.532-4.131,29.723-11.266,8.191,7.135,17.76,10.761,29.726,11.266.017,1.229.041,2.482.065,3.775C83.168,43.643,83.631,68.045,52.965,79.185Z" transform="translate(0 0)"/>
    <path id="Path_11" data-name="Path 11" d="M94.178,79.76,79.761,94.177l-6.152-6.152a2.987,2.987,0,0,0-4.224,4.225l8.264,8.264a2.988,2.988,0,0,0,4.224,0L98.4,83.985a2.987,2.987,0,1,0-4.224-4.225Z" transform="translate(-30.926 -47.466)"/>
  </g>
</svg>
