<svg xmlns="http://www.w3.org/2000/svg" width="114.986" height="85.341" viewBox="0 0 114.986 85.341">
  <defs>
    <style>
      .cls-1 {
        opacity: 0.8;
      }
    </style>
  </defs>
  <g id="delivery-truck" class="cls-1" transform="translate(0 0)">
    <path id="Path_210" data-name="Path 210" d="M105.547,40.569,101.675,25.08a6.735,6.735,0,0,0-4.655-11.6H79.053V6.738A6.745,6.745,0,0,0,72.316,0H6.738A6.745,6.745,0,0,0,0,6.738V65.129a6.745,6.745,0,0,0,6.737,6.737h8.085a13.475,13.475,0,0,0,26.95,0H83.545a13.475,13.475,0,1,0,26.95,0c0-.128-.006-.255-.01-.383a6.748,6.748,0,0,0,4.5-6.354V51.654a11.246,11.246,0,0,0-9.439-11.085ZM97.512,26.95l3.369,13.475H82.229l-3.176-3.177V26.95Zm1.754-6.737a2.247,2.247,0,0,1-2.246,2.246H79.053V17.967H97.02A2.248,2.248,0,0,1,99.266,20.213ZM28.3,80.85a8.983,8.983,0,1,1,8.983-8.983A8.994,8.994,0,0,1,28.3,80.85ZM41,67.375a13.475,13.475,0,0,0-25.409,0H6.738a2.248,2.248,0,0,1-2.246-2.246V6.738A2.248,2.248,0,0,1,6.738,4.492H72.316a2.248,2.248,0,0,1,2.246,2.246V67.375ZM97.02,80.85A8.983,8.983,0,1,1,106,71.867,8.994,8.994,0,0,1,97.02,80.85Zm12.544-13.9a13.475,13.475,0,0,0-25.249.429H79.053V44.917h24.7c2.927,0,5.277,2.83,5.807,4.125a28.291,28.291,0,0,1,.931,4.858V65.129a2.245,2.245,0,0,1-.931,1.817Zm0,0"/>
    <path id="Path_211" data-name="Path 211" d="M106.212,60a20.212,20.212,0,1,0,20.212,20.212A20.236,20.236,0,0,0,106.212,60Zm0,35.933a15.721,15.721,0,1,1,15.721-15.721A15.739,15.739,0,0,1,106.212,95.933Zm0,0" transform="translate(-66.686 -46.525)"/>
    <path id="Path_212" data-name="Path 212" d="M177.229,108.983h-6.737v-6.737a2.246,2.246,0,1,0-4.492,0v8.983a2.246,2.246,0,0,0,2.246,2.246h8.983a2.246,2.246,0,1,0,0-4.492Zm0,0" transform="translate(-128.719 -77.542)"/>
  </g>
</svg>
