<svg xmlns="http://www.w3.org/2000/svg" width="84.485" height="85.341" viewBox="0 0 84.485 85.341">
  <defs>
    <style>
      .cls-1 {
        opacity: 0.8;
      }

      .cls-2 {
        fill: #141414;
      }
    </style>
  </defs>
  <g id="wallet" class="cls-1" transform="translate(-1.681)">
    <path id="Path_179" data-name="Path 179" class="cls-2" d="M86.166,39.756H82.071V20.92a8.2,8.2,0,0,0-8.189-8.189H68.336l-5.675-10.2A4.913,4.913,0,0,0,55.979.619L34.2,12.731H9.87A8.2,8.2,0,0,0,1.681,20.92V77.152A8.2,8.2,0,0,0,9.87,85.341H73.882a8.2,8.2,0,0,0,8.189-8.189V60.638h4.095V39.756ZM73.882,16.007a4.9,4.9,0,0,1,4.859,4.368H72.586l-2.427-4.368ZM57.572,3.482a1.669,1.669,0,0,1,2.226.636l9.041,16.256H27.2ZM78.8,77.152a4.92,4.92,0,0,1-4.914,4.914H9.87a4.92,4.92,0,0,1-4.914-4.914V20.92A4.92,4.92,0,0,1,9.87,16.007H28.309l-7.855,4.368h-9.56a1.638,1.638,0,1,0,0,3.276H78.8V39.757H66.818A10.1,10.1,0,0,0,56.729,49.846v.7A10.1,10.1,0,0,0,66.818,60.64H78.8V77.152Zm4.095-19.79H66.818A6.821,6.821,0,0,1,60,50.549v-.7a6.821,6.821,0,0,1,6.814-6.814H82.89ZM71.835,50.331a3.616,3.616,0,1,1-3.616-3.616A3.615,3.615,0,0,1,71.835,50.331Z" transform="translate(0 0)"/>
  </g>
</svg>
